<?xml version="1.0" standalone="no"?>
<!DOCTYPE svg PUBLIC "-//W3C//DTD SVG 20010904//EN"
 "http://www.w3.org/TR/2001/REC-SVG-20010904/DTD/svg10.dtd">
<svg version="1.0" xmlns="http://www.w3.org/2000/svg"
 width="1500.000000pt" height="1500.000000pt" viewBox="0 0 1500.000000 1500.000000"
 preserveAspectRatio="xMidYMid meet">
<metadata>
Created by potrace 1.11, written by Peter Selinger 2001-2013
</metadata>
<g transform="translate(0.000000,1500.000000) scale(0.100000,-0.100000)"
fill="#000000" stroke="none">
<path d="M2430 8090 l0 -5070 5070 0 5070 0 0 5070 0 5070 -5070 0 -5070 0 0
-5070z m1517 -1905 c48 -96 90 -175 94 -175 3 0 70 79 149 175 l144 175 149 0
c116 0 147 -3 141 -12 -4 -7 -118 -145 -252 -307 -147 -177 -248 -306 -252
-325 -5 -17 -25 -142 -46 -278 l-38 -248 -123 0 c-92 0 -123 3 -123 13 0 6 18
130 41 274 l41 262 -156 305 c-86 167 -156 307 -156 310 0 3 67 6 149 6 l149
0 89 -175z m1248 -169 c28 -9 64 -30 85 -51 l37 -36 16 41 15 40 100 0 c90 0
100 -2 96 -17 -4 -21 -124 -789 -124 -797 0 -3 -45 -6 -100 -6 -99 0 -100 0
-100 24 0 53 -9 58 -48 26 -61 -48 -115 -63 -227 -64 -80 0 -109 4 -146 21
-90 41 -150 111 -184 212 -23 71 -17 212 14 291 57 149 183 271 326 316 55 17
182 17 240 0z m706 -36 c11 -31 23 -38 34 -20 3 5 38 19 77 31 116 35 243 15
312 -49 41 -39 76 -118 76 -175 0 -27 -18 -163 -40 -303 -22 -140 -40 -259
-40 -265 0 -5 -51 -9 -116 -9 l-116 0 6 43 c4 23 22 139 41 257 38 245 36 269
-25 302 -70 39 -188 0 -222 -74 -9 -18 -33 -144 -55 -280 l-38 -248 -112 0
c-62 0 -113 3 -113 8 -1 4 28 188 62 410 l63 402 98 0 98 0 10 -30z m896 0
l11 -30 58 27 c106 48 246 40 335 -20 19 -12 46 -45 61 -72 23 -42 28 -63 28
-124 0 -59 -55 -459 -75 -548 -5 -22 -9 -23 -120 -23 -115 0 -115 0 -110 23
12 51 75 470 75 498 0 66 -90 114 -171 90 -40 -12 -93 -51 -109 -80 -5 -10
-25 -121 -45 -247 -20 -126 -38 -241 -41 -256 l-6 -28 -114 0 -113 0 4 28 c3
15 30 185 60 377 30 193 57 365 60 383 l6 32 97 0 98 0 11 -30z m-937 -970 c0
-12 -59 -388 -65 -417 -5 -20 0 -19 66 15 70 36 74 37 183 37 101 0 116 -2
161 -27 62 -32 129 -103 157 -166 29 -66 36 -200 13 -277 -57 -197 -204 -341
-383 -375 -106 -21 -228 5 -288 61 l-22 20 -22 -35 -22 -36 -97 0 -98 0 33
208 c18 114 61 386 96 605 l62 397 113 0 c66 0 113 -4 113 -10z m1875 -24 c76
-32 84 -129 17 -197 -72 -70 -172 -57 -201 27 -14 39 -13 44 10 90 18 37 35
54 69 72 52 26 60 27 105 8z m-3504 -26 c113 -35 206 -123 250 -237 31 -81 38
-261 14 -368 -59 -266 -235 -474 -449 -531 -60 -16 -626 -20 -626 -5 0 5 41
266 90 579 50 314 90 573 90 576 0 3 128 6 284 6 255 0 290 -2 347 -20z m2892
-345 c242 -120 263 -449 42 -670 -266 -266 -663 -171 -709 170 -21 152 78 347
229 450 90 63 172 86 285 82 80 -3 104 -8 153 -32z m1173 20 c27 -8 66 -29 88
-47 35 -29 75 -95 76 -125 0 -6 -37 -24 -82 -39 -46 -15 -88 -29 -95 -31 -6
-3 -14 5 -18 17 -9 28 -68 53 -106 45 -34 -8 -69 -48 -69 -81 0 -29 33 -47
115 -64 88 -18 150 -48 189 -91 39 -42 52 -89 42 -155 -22 -160 -223 -293
-410 -270 -106 14 -221 91 -228 155 -3 19 9 28 81 61 l84 38 19 -24 c24 -29
86 -47 135 -38 40 8 93 52 93 78 0 21 -54 54 -100 62 -157 27 -250 104 -250
207 0 204 230 364 436 302z m-3438 -242 c-21 -131 -38 -255 -38 -276 0 -74 80
-121 168 -98 42 12 95 50 112 80 5 10 25 121 45 247 20 126 38 241 41 257 l6
27 114 0 114 0 -5 -27 c-3 -16 -30 -185 -60 -378 -30 -192 -57 -365 -60 -382
l-6 -33 -97 0 -98 0 -11 30 -11 30 -59 -27 c-49 -24 -71 -28 -148 -28 -79 0
-97 4 -148 29 -98 47 -147 145 -133 259 11 81 77 501 81 515 3 9 36 12 118 12
l113 0 -38 -237z m2856 30 c-18 -115 -47 -299 -65 -410 l-32 -203 -114 0 -115
0 6 33 c3 17 31 192 61 387 30 195 58 365 60 378 5 21 9 22 118 22 l114 0 -33
-207z"/>
<path d="M5005 5817 c-143 -55 -221 -211 -166 -332 72 -159 300 -143 385 27
62 125 40 249 -54 296 -49 24 -115 28 -165 9z"/>
<path d="M5908 4440 c-83 -25 -139 -91 -165 -195 -19 -80 -11 -144 24 -185
118 -141 366 -37 399 167 7 46 -10 117 -39 157 -38 54 -140 80 -219 56z"/>
<path d="M3819 4748 c-1 -2 -27 -162 -58 -355 l-57 -353 145 0 c120 0 153 4
187 19 88 40 155 124 196 246 32 98 33 271 1 330 -26 48 -68 90 -106 104 -23
9 -305 17 -308 9z"/>
<path d="M6850 4434 c-104 -45 -182 -187 -165 -300 8 -57 61 -119 115 -135
114 -34 251 61 281 196 38 170 -88 301 -231 239z"/>
<path d="M3350 2218 c0 -7 17 -74 38 -148 l39 -135 40 -3 40 -3 29 95 c15 53
31 92 35 88 4 -4 19 -46 33 -94 l27 -88 39 0 39 0 20 68 c31 107 61 218 61
226 0 4 -14 6 -32 4 -31 -3 -32 -4 -59 -107 -15 -57 -30 -105 -32 -108 -3 -2
-8 9 -11 24 -4 15 -19 65 -32 111 -25 83 -26 83 -57 80 -31 -3 -32 -5 -61
-105 -16 -57 -33 -103 -36 -103 -4 0 -12 23 -19 52 -6 28 -18 75 -27 105 -14
48 -18 53 -45 53 -16 0 -29 -5 -29 -12z"/>
<path d="M3860 2080 l0 -150 95 0 95 0 0 30 0 30 -60 0 -60 0 0 35 0 35 56 0
c54 0 55 0 52 28 -3 25 -7 27 -55 30 -49 3 -53 5 -53 28 0 23 3 24 60 24 l60
0 0 30 0 30 -95 0 -95 0 0 -150z"/>
<path d="M4130 2080 l0 -150 86 0 c81 0 87 1 115 29 34 35 38 77 11 112 -17
20 -17 25 -5 50 9 19 11 34 4 52 -17 44 -48 57 -133 57 l-78 0 0 -150z m155
65 c0 -16 -8 -21 -42 -23 -40 -3 -43 -2 -43 23 0 25 3 26 43 23 34 -2 42 -7
42 -23z m5 -100 c6 -8 9 -23 5 -35 -5 -16 -15 -20 -51 -20 -44 0 -44 0 -44 35
0 34 1 35 39 35 21 0 44 -6 51 -15z"/>
<path d="M4590 2080 l0 -150 35 0 35 0 0 60 0 60 46 0 c57 0 104 40 104 90 0
22 -9 41 -29 61 -28 27 -34 29 -110 29 l-81 0 0 -150z m150 75 c19 -22 -5 -45
-46 -45 -31 0 -34 3 -34 30 0 27 3 30 34 30 18 0 39 -7 46 -15z"/>
<path d="M4880 2080 l0 -150 30 0 30 0 0 60 c0 47 3 60 15 60 8 0 36 -27 62
-60 40 -52 51 -60 80 -60 18 0 33 2 33 5 0 3 -20 31 -44 62 l-45 57 25 24 c17
17 24 36 24 61 -1 67 -38 91 -139 91 l-71 0 0 -150z m144 75 c11 -29 -5 -45
-45 -45 -37 0 -39 2 -39 30 0 28 2 30 39 30 25 0 41 -5 45 -15z"/>
<path d="M5276 2211 c-124 -82 -72 -284 74 -284 111 0 182 121 131 222 -12 23
-36 51 -54 61 -42 26 -113 26 -151 1z m129 -66 c54 -53 18 -155 -55 -155 -73
0 -108 97 -55 154 32 34 77 35 110 1z"/>
<path d="M5580 2080 l0 -150 75 0 c95 0 130 17 156 73 24 53 24 101 0 153 -25
54 -67 74 -160 74 l-71 0 0 -150z m150 80 c39 -21 44 -114 9 -156 -7 -8 -30
-14 -55 -14 l-44 0 0 90 0 90 36 0 c19 0 44 -5 54 -10z"/>
<path d="M5910 2111 c0 -119 0 -120 30 -149 48 -48 123 -47 171 4 22 24 24 34
27 145 l4 119 -31 0 -31 0 0 -92 c0 -55 -6 -103 -13 -118 -15 -31 -52 -37 -78
-14 -16 15 -19 31 -19 121 l0 103 -30 0 -30 0 0 -119z"/>
<path d="M6287 2212 c-59 -40 -85 -106 -67 -174 29 -105 148 -145 234 -77 31
25 33 35 6 49 -15 8 -27 7 -49 -5 -69 -35 -131 0 -131 75 0 72 59 108 126 78
23 -11 28 -10 40 7 20 27 18 32 -16 50 -40 21 -109 19 -143 -3z"/>
<path d="M6542 2203 c3 -24 8 -28 41 -31 l37 -3 0 -120 0 -119 35 0 35 0 0
120 0 120 35 0 c32 0 35 2 35 30 l0 30 -111 0 -110 0 3 -27z"/>
<path d="M6871 2204 c-24 -20 -31 -34 -31 -63 0 -47 27 -74 95 -93 58 -16 72
-42 30 -58 -26 -10 -62 0 -76 22 -6 9 -59 -10 -59 -22 0 -14 48 -51 78 -59 64
-19 152 29 152 83 0 37 -38 73 -100 93 -63 20 -77 46 -36 64 20 10 30 9 50 -5
21 -13 29 -14 46 -4 28 18 25 35 -10 53 -46 24 -103 19 -139 -11z"/>
</g>
</svg>
